<svg width="100" height="50" viewBox="0 0 100 50" fill="none" xmlns="http://www.w3.org/2000/svg">
<path d="M75.65 17.14V7.708H78.062V17.14H75.65ZM75.65 6.394V4H78.062V6.394H75.65Z" fill="#ADADAD"/>
<path d="M83.7119 17.32C82.9079 17.32 82.1399 17.188 81.4079 16.924C80.6759 16.66 80.0459 16.27 79.5179 15.754L80.3819 14.188C80.9459 14.644 81.4979 14.98 82.0379 15.196C82.5899 15.412 83.1179 15.52 83.6219 15.52C84.0899 15.52 84.4619 15.436 84.7379 15.268C85.0259 15.1 85.1699 14.848 85.1699 14.512C85.1699 14.284 85.0919 14.11 84.9359 13.99C84.7799 13.858 84.5519 13.744 84.2519 13.648C83.9639 13.552 83.6099 13.444 83.1899 13.324C82.4939 13.096 81.9119 12.874 81.4439 12.658C80.9759 12.442 80.6219 12.172 80.3819 11.848C80.1539 11.512 80.0399 11.086 80.0399 10.57C80.0399 9.946 80.1959 9.412 80.5079 8.968C80.8319 8.512 81.2759 8.158 81.8399 7.906C82.4159 7.654 83.0879 7.528 83.8559 7.528C84.5279 7.528 85.1639 7.636 85.7639 7.852C86.3639 8.056 86.9099 8.392 87.4019 8.86L86.4299 10.39C85.9499 10.018 85.4939 9.748 85.0619 9.58C84.6299 9.4 84.1919 9.31 83.7479 9.31C83.4959 9.31 83.2559 9.34 83.0279 9.4C82.8119 9.46 82.6319 9.562 82.4879 9.706C82.3559 9.838 82.2899 10.03 82.2899 10.282C82.2899 10.51 82.3499 10.69 82.4699 10.822C82.6019 10.942 82.7939 11.05 83.0459 11.146C83.3099 11.242 83.6279 11.35 83.9999 11.47C84.7559 11.686 85.3919 11.908 85.9079 12.136C86.4359 12.364 86.8319 12.646 87.0959 12.982C87.3599 13.306 87.4919 13.756 87.4919 14.332C87.4919 15.268 87.1499 16 86.4659 16.528C85.7819 17.056 84.8639 17.32 83.7119 17.32Z" fill="#ADADAD"/>
<path d="M97.8984 17.14H95.4864V11.848C95.4864 11.116 95.3424 10.57 95.0544 10.21C94.7784 9.85 94.3944 9.67 93.9024 9.67C93.6144 9.67 93.3084 9.754 92.9844 9.922C92.6604 10.09 92.3664 10.324 92.1024 10.624C91.8504 10.912 91.6644 11.248 91.5444 11.632V17.14H89.1324V4H91.5444V9.454C91.8924 8.854 92.3664 8.386 92.9664 8.05C93.5664 7.714 94.2204 7.546 94.9284 7.546C95.5404 7.546 96.0384 7.654 96.4224 7.87C96.8064 8.074 97.1064 8.356 97.3224 8.716C97.5384 9.064 97.6884 9.46 97.7724 9.904C97.8564 10.336 97.8984 10.786 97.8984 11.254V17.14Z" fill="#ADADAD"/>
<path d="M7.904 30.524V45.14H2V19.58H6.68L18.524 34.628V19.58H24.428V45.14H19.604L7.904 30.524Z" fill="#006981"/>
<path d="M28.6684 38.336V26.24H34.4284V37.076C34.4284 38.228 34.6564 39.116 35.1124 39.74C35.5684 40.34 36.2164 40.64 37.0564 40.64C37.5844 40.64 38.0884 40.556 38.5684 40.388C39.0484 40.196 39.5164 39.896 39.9724 39.488C40.4284 39.08 40.8364 38.552 41.1964 37.904V26.24H46.9564V38.732C46.9564 39.308 47.0404 39.716 47.2084 39.956C47.4004 40.172 47.7244 40.304 48.1804 40.352V45.14C47.6524 45.236 47.1844 45.308 46.7764 45.356C46.3924 45.404 46.0444 45.428 45.7324 45.428C44.7244 45.428 43.9204 45.224 43.3204 44.816C42.7204 44.384 42.3484 43.784 42.2044 43.016L42.0964 41.864C41.2324 43.112 40.1524 44.036 38.8564 44.636C37.5844 45.212 36.1564 45.5 34.5724 45.5C32.6524 45.5 31.1884 44.888 30.1804 43.664C29.1724 42.44 28.6684 40.664 28.6684 38.336Z" fill="#006981"/>
<path d="M51.3467 18.86H57.1067V38.408C57.1067 39.2 57.2507 39.764 57.5387 40.1C57.8267 40.436 58.2347 40.604 58.7627 40.604C59.1227 40.604 59.4827 40.556 59.8427 40.46C60.2267 40.34 60.5627 40.208 60.8507 40.064L61.6067 44.384C60.8867 44.72 60.0587 44.984 59.1227 45.176C58.1867 45.368 57.3107 45.464 56.4947 45.464C54.8627 45.464 53.5907 45.032 52.6787 44.168C51.7907 43.28 51.3467 42.032 51.3467 40.424V18.86Z" fill="#006981"/>
<path d="M63.4053 18.86H69.1653V38.408C69.1653 39.2 69.3093 39.764 69.5973 40.1C69.8853 40.436 70.2933 40.604 70.8213 40.604C71.1813 40.604 71.5413 40.556 71.9013 40.46C72.2853 40.34 72.6213 40.208 72.9093 40.064L73.6653 44.384C72.9453 44.72 72.1173 44.984 71.1813 45.176C70.2453 45.368 69.3693 45.464 68.5533 45.464C66.9213 45.464 65.6493 45.032 64.7373 44.168C63.8493 43.28 63.4053 42.032 63.4053 40.424V18.86Z" fill="#006981"/>
</svg>
