<svg width="78" height="58" viewBox="0 0 78 58" fill="none" xmlns="http://www.w3.org/2000/svg">
<path d="M39 58C60.5391 58 78 45.0163 78 29C78 12.9837 60.5391 0 39 0C17.4609 0 0 12.9837 0 29C0 45.0163 17.4609 58 39 58Z" fill="#68D391"/>
<path d="M61.0622 39.1467C100.365 71.6173 59.2574 52.2933 57.0311 52.2933C54.8048 52.2933 53 46.4074 53 39.1467C53 31.886 57.0311 39.1467 57.0311 26C67.5694 44.6904 61.0622 31.886 61.0622 39.1467Z" fill="#68D391"/>
<path d="M12.172 35.126C11.692 35.126 11.452 34.874 11.452 34.37V26.864C11.452 26.372 11.686 26.126 12.154 26.126C12.634 26.126 12.874 26.372 12.874 26.864V27.746C13.162 27.194 13.57 26.78 14.098 26.504C14.626 26.228 15.22 26.09 15.88 26.09C17.956 26.09 18.994 27.242 18.994 29.546V34.37C18.994 34.874 18.754 35.126 18.274 35.126C17.782 35.126 17.536 34.874 17.536 34.37V29.636C17.536 28.82 17.374 28.226 17.05 27.854C16.738 27.47 16.234 27.278 15.538 27.278C14.734 27.278 14.092 27.53 13.612 28.034C13.144 28.526 12.91 29.186 12.91 30.014V34.37C12.91 34.874 12.664 35.126 12.172 35.126ZM24.7785 35.162C22.6785 35.162 21.6285 34.004 21.6285 31.688V26.864C21.6285 26.372 21.8685 26.126 22.3485 26.126C22.8405 26.126 23.0865 26.372 23.0865 26.864V31.67C23.0865 32.45 23.2425 33.026 23.5545 33.398C23.8785 33.77 24.3825 33.956 25.0665 33.956C25.8105 33.956 26.4165 33.71 26.8845 33.218C27.3525 32.714 27.5865 32.048 27.5865 31.22V26.864C27.5865 26.372 27.8325 26.126 28.3245 26.126C28.8045 26.126 29.0445 26.372 29.0445 26.864V34.37C29.0445 34.874 28.8105 35.126 28.3425 35.126C27.8625 35.126 27.6225 34.874 27.6225 34.37V33.524C27.3465 34.052 26.9565 34.46 26.4525 34.748C25.9605 35.024 25.4025 35.162 24.7785 35.162ZM34.5263 35.162C33.9263 35.162 33.3863 35.048 32.9063 34.82C32.4383 34.58 32.0663 34.256 31.7903 33.848C31.5143 33.44 31.3763 32.984 31.3763 32.48C31.3763 31.844 31.5383 31.34 31.8623 30.968C32.1983 30.596 32.7443 30.332 33.5003 30.176C34.2683 30.008 35.3123 29.924 36.6323 29.924H37.2083V29.366C37.2083 28.622 37.0523 28.088 36.7403 27.764C36.4403 27.428 35.9543 27.26 35.2823 27.26C34.8623 27.26 34.4363 27.314 34.0043 27.422C33.5843 27.53 33.1463 27.704 32.6903 27.944C32.4863 28.052 32.3123 28.076 32.1683 28.016C32.0363 27.944 31.9403 27.836 31.8803 27.692C31.8323 27.536 31.8323 27.38 31.8803 27.224C31.9403 27.056 32.0603 26.93 32.2403 26.846C32.7563 26.582 33.2723 26.39 33.7883 26.27C34.3163 26.15 34.8143 26.09 35.2823 26.09C36.4103 26.09 37.2443 26.366 37.7843 26.918C38.3363 27.47 38.6123 28.328 38.6123 29.492V34.37C38.6123 34.874 38.3903 35.126 37.9463 35.126C37.4783 35.126 37.2443 34.874 37.2443 34.37V33.488C37.0163 34.004 36.6623 34.412 36.1823 34.712C35.7143 35.012 35.1623 35.162 34.5263 35.162ZM34.7603 34.064C35.4803 34.064 36.0683 33.818 36.5243 33.326C36.9803 32.822 37.2083 32.186 37.2083 31.418V30.878H36.6503C35.6783 30.878 34.9103 30.926 34.3463 31.022C33.7943 31.106 33.4043 31.262 33.1763 31.49C32.9603 31.706 32.8523 32.006 32.8523 32.39C32.8523 32.882 33.0203 33.284 33.3563 33.596C33.7043 33.908 34.1723 34.064 34.7603 34.064ZM42.0372 35.126C41.5572 35.126 41.3172 34.874 41.3172 34.37V26.864C41.3172 26.372 41.5512 26.126 42.0192 26.126C42.4992 26.126 42.7392 26.372 42.7392 26.864V27.746C43.0272 27.194 43.4352 26.78 43.9632 26.504C44.4912 26.228 45.0852 26.09 45.7452 26.09C47.8212 26.09 48.8592 27.242 48.8592 29.546V34.37C48.8592 34.874 48.6192 35.126 48.1392 35.126C47.6472 35.126 47.4012 34.874 47.4012 34.37V29.636C47.4012 28.82 47.2392 28.226 46.9152 27.854C46.6032 27.47 46.0992 27.278 45.4032 27.278C44.5992 27.278 43.9572 27.53 43.4772 28.034C43.0092 28.526 42.7752 29.186 42.7752 30.014V34.37C42.7752 34.874 42.5292 35.126 42.0372 35.126ZM55.2557 35.162C54.3797 35.162 53.6237 34.976 52.9877 34.604C52.3517 34.22 51.8597 33.686 51.5117 33.002C51.1757 32.306 51.0077 31.496 51.0077 30.572C51.0077 29.18 51.3857 28.088 52.1417 27.296C52.8977 26.492 53.9357 26.09 55.2557 26.09C55.6877 26.09 56.1377 26.162 56.6057 26.306C57.0737 26.438 57.4997 26.66 57.8837 26.972C58.0877 27.116 58.1717 27.296 58.1357 27.512C58.1117 27.728 58.0097 27.89 57.8297 27.998C57.6617 28.106 57.4637 28.082 57.2357 27.926C56.9117 27.686 56.5877 27.518 56.2637 27.422C55.9517 27.326 55.6457 27.278 55.3457 27.278C54.4337 27.278 53.7317 27.566 53.2397 28.142C52.7477 28.706 52.5017 29.522 52.5017 30.59C52.5017 31.634 52.7477 32.462 53.2397 33.074C53.7317 33.674 54.4337 33.974 55.3457 33.974C55.6457 33.974 55.9517 33.926 56.2637 33.83C56.5877 33.734 56.9117 33.566 57.2357 33.326C57.4637 33.17 57.6617 33.152 57.8297 33.272C57.9977 33.38 58.0877 33.542 58.0997 33.758C58.1237 33.974 58.0397 34.148 57.8477 34.28C57.4637 34.592 57.0437 34.82 56.5877 34.964C56.1317 35.096 55.6877 35.162 55.2557 35.162ZM63.6459 35.162C62.2659 35.162 61.1739 34.76 60.3699 33.956C59.5659 33.14 59.1639 32.036 59.1639 30.644C59.1639 29.744 59.3439 28.952 59.7039 28.268C60.0639 27.572 60.5559 27.038 61.1799 26.666C61.8159 26.282 62.5479 26.09 63.3759 26.09C64.5639 26.09 65.4939 26.474 66.1659 27.242C66.8379 27.998 67.1739 29.042 67.1739 30.374C67.1739 30.746 66.9639 30.932 66.5439 30.932H60.5859C60.6339 31.928 60.9219 32.69 61.4499 33.218C61.9779 33.734 62.7099 33.992 63.6459 33.992C64.0419 33.992 64.4439 33.944 64.8519 33.848C65.2599 33.74 65.6559 33.554 66.0399 33.29C66.3159 33.11 66.5439 33.074 66.7239 33.182C66.9159 33.29 67.0119 33.458 67.0119 33.686C67.0239 33.902 66.9039 34.094 66.6519 34.262C66.2559 34.55 65.7819 34.772 65.2299 34.928C64.6899 35.084 64.1619 35.162 63.6459 35.162ZM63.4119 27.17C62.5839 27.17 61.9299 27.428 61.4499 27.944C60.9699 28.46 60.6879 29.138 60.6039 29.978H65.9139C65.8779 29.09 65.6439 28.4 65.2119 27.908C64.7919 27.416 64.1919 27.17 63.4119 27.17Z" fill="white"/>
</svg>
